<svg xmlns="http://www.w3.org/2000/svg" xmlns:xlink="http://www.w3.org/1999/xlink" width="400" zoomAndPan="magnify" viewBox="0 0 300 299.999988" height="400" preserveAspectRatio="xMidYMid meet" version="1.0"><defs><clipPath id="4b510e012d"><path d="M 66.035156 91.222656 L 156 91.222656 L 156 202 L 66.035156 202 Z M 66.035156 91.222656 " clip-rule="nonzero"/></clipPath><clipPath id="cf07e3f80f"><path d="M 109.175781 123.324219 C 121.894531 130.703125 142.195312 149.335938 150.324219 194.921875 C 180.042969 105.882812 66.734375 91.609375 66.734375 91.609375 C 66.734375 91.609375 58.652344 197.042969 137.316406 201.625 C 137.316406 201.625 134.933594 158.050781 106.449219 126.753906 C 104.75 124.878906 106.984375 122.066406 109.175781 123.335938 " clip-rule="nonzero"/></clipPath><clipPath id="7d7801c546"><path d="M 0.0351562 0.441406 L 90 0.441406 L 90 110.839844 L 0.0351562 110.839844 Z M 0.0351562 0.441406 " clip-rule="nonzero"/></clipPath><clipPath id="f70fc22399"><path d="M 43.175781 32.324219 C 55.894531 39.703125 76.195312 58.335938 84.324219 103.921875 C 114.042969 14.882812 0.734375 0.609375 0.734375 0.609375 C 0.734375 0.609375 -7.347656 106.042969 71.316406 110.625 C 71.316406 110.625 68.933594 67.050781 40.449219 35.753906 C 38.75 33.878906 40.984375 31.066406 43.175781 32.335938 " clip-rule="nonzero"/></clipPath><clipPath id="32ecc12e50"><rect x="0" width="90" y="0" height="111"/></clipPath><clipPath id="ffbccfe248"><path d="M 160.496094 129.007812 L 233.964844 129.007812 L 233.964844 208.777344 L 160.496094 208.777344 Z M 160.496094 129.007812 " clip-rule="nonzero"/></clipPath><clipPath id="94ce4956f4"><path d="M 163.054688 203.191406 C 175.570312 165.664062 193.433594 152.546875 203.542969 148.007812 C 205.519531 147.109375 207.277344 149.585938 205.804688 151.171875 C 179.839844 178.839844 172.835938 208.195312 172.835938 208.195312 C 172.835938 208.195312 220.566406 217.957031 233.503906 129.078125 C 233.503906 129.078125 145.625 135.761719 163.066406 203.203125 " clip-rule="nonzero"/></clipPath><clipPath id="92c21f565e"><path d="M 0.496094 0.0078125 L 73.519531 0.0078125 L 73.519531 79.777344 L 0.496094 79.777344 Z M 0.496094 0.0078125 " clip-rule="nonzero"/></clipPath><clipPath id="1a9b910baa"><path d="M 3.054688 74.191406 C 15.570312 36.664062 33.433594 23.546875 43.542969 19.007812 C 45.519531 18.109375 47.277344 20.585938 45.804688 22.171875 C 19.839844 49.839844 12.835938 79.195312 12.835938 79.195312 C 12.835938 79.195312 60.566406 88.957031 73.503906 0.078125 C 73.503906 0.078125 -14.375 6.761719 3.066406 74.203125 " clip-rule="nonzero"/></clipPath><clipPath id="4156da376a"><rect x="0" width="74" y="0" height="80"/></clipPath><clipPath id="2ab4ca0638"><path d="M 107 124.808594 L 204.578125 124.808594 L 204.578125 268 L 107 268 Z M 107 124.808594 " clip-rule="nonzero"/></clipPath><clipPath id="0d49d4f883"><path d="M 159.46875 267.988281 C 163.941406 235.375 171.394531 202.886719 179.417969 185.839844 L 179.40625 185.851562 C 184.558594 175.433594 192.503906 162.511719 204.417969 149.835938 C 204.417969 149.8125 204.382812 149.765625 204.351562 149.765625 C 204.351562 149.765625 204.339844 149.765625 204.339844 149.765625 C 195.066406 153.929688 177.828125 166.277344 165.460938 202.125 C 161.804688 211.328125 158.105469 220.828125 155.90625 226.570312 L 155.066406 229 C 154.988281 229.238281 154.757812 229.394531 154.507812 229.394531 L 154.203125 229.394531 C 153.898438 229.394531 153.648438 229.167969 153.625 228.863281 C 153.160156 223.675781 151.957031 212.441406 149.277344 199.199219 C 148.597656 195.398438 146.851562 187.554688 146.851562 187.554688 C 143.148438 171.066406 137.453125 157.007812 129.875 145.875 C 122.132812 134.515625 113.816406 128.238281 108.199219 124.992188 C 108.128906 124.960938 108.074219 124.9375 108.039062 124.9375 C 107.972656 124.9375 107.859375 125.027344 107.800781 125.140625 C 107.753906 125.242188 107.753906 125.300781 107.878906 125.425781 C 128.351562 147.929688 135.546875 176.253906 138.007812 191.210938 C 138.007812 191.210938 138.941406 197.484375 139.382812 200.308594 C 143.320312 225.367188 146.089844 261.976562 146.667969 267.980469 Z M 159.46875 267.988281 " clip-rule="nonzero"/></clipPath><clipPath id="4c4d9a1425"><path d="M 0.519531 0.808594 L 97.480469 0.808594 L 97.480469 144 L 0.519531 144 Z M 0.519531 0.808594 " clip-rule="nonzero"/></clipPath><clipPath id="9b000182fa"><path d="M 52.46875 143.988281 C 56.941406 111.375 64.394531 78.886719 72.417969 61.839844 L 72.40625 61.851562 C 77.558594 51.433594 85.503906 38.511719 97.417969 25.835938 C 97.417969 25.8125 97.382812 25.765625 97.351562 25.765625 C 97.351562 25.765625 97.339844 25.765625 97.339844 25.765625 C 88.066406 29.929688 70.828125 42.277344 58.460938 78.125 C 54.804688 87.328125 51.105469 96.828125 48.90625 102.570312 L 48.066406 105 C 47.988281 105.238281 47.757812 105.394531 47.507812 105.394531 L 47.203125 105.394531 C 46.898438 105.394531 46.648438 105.167969 46.625 104.863281 C 46.160156 99.675781 44.957031 88.441406 42.277344 75.199219 C 41.597656 71.398438 39.851562 63.554688 39.851562 63.554688 C 36.148438 47.066406 30.453125 33.007812 22.875 21.875 C 15.132812 10.515625 6.816406 4.238281 1.199219 0.992188 C 1.128906 0.960938 1.074219 0.9375 1.039062 0.9375 C 0.972656 0.9375 0.859375 1.027344 0.800781 1.140625 C 0.753906 1.242188 0.753906 1.300781 0.878906 1.425781 C 21.351562 23.929688 28.546875 52.253906 31.007812 67.210938 C 31.007812 67.210938 31.941406 73.484375 32.382812 76.308594 C 36.320312 101.367188 39.089844 137.976562 39.667969 143.980469 Z M 52.46875 143.988281 " clip-rule="nonzero"/></clipPath><clipPath id="fc5c4830a7"><rect x="0" width="98" y="0" height="144"/></clipPath><clipPath id="dea37daedb"><path d="M 21 21 L 279 21 L 279 279 L 21 279 Z M 21 21 " clip-rule="nonzero"/></clipPath><clipPath id="006f4e393a"><path d="M 263.734375 150.003906 C 263.734375 87.285156 212.714844 36.261719 149.992188 36.261719 C 87.273438 36.261719 36.261719 87.285156 36.261719 150.003906 C 36.261719 212.726562 87.285156 263.734375 150.003906 263.734375 C 212.726562 263.734375 263.746094 212.714844 263.746094 149.992188 M 278.679688 149.992188 C 278.679688 221.054688 221.078125 278.667969 150.003906 278.667969 C 78.933594 278.667969 21.328125 221.066406 21.328125 150.003906 C 21.328125 78.941406 78.933594 21.328125 150.003906 21.328125 C 221.078125 21.328125 278.667969 78.933594 278.667969 150.003906 " clip-rule="nonzero"/></clipPath><clipPath id="816545f5a8"><path d="M 0.121094 0.121094 L 257.878906 0.121094 L 257.878906 257.878906 L 0.121094 257.878906 Z M 0.121094 0.121094 " clip-rule="nonzero"/></clipPath><clipPath id="9ff2e64489"><path d="M 242.734375 129.003906 C 242.734375 66.285156 191.714844 15.261719 128.992188 15.261719 C 66.273438 15.261719 15.261719 66.285156 15.261719 129.003906 C 15.261719 191.726562 66.285156 242.734375 129.003906 242.734375 C 191.726562 242.734375 242.746094 191.714844 242.746094 128.992188 M 257.679688 128.992188 C 257.679688 200.054688 200.078125 257.667969 129.003906 257.667969 C 57.933594 257.667969 0.328125 200.066406 0.328125 129.003906 C 0.328125 57.941406 57.933594 0.328125 129.003906 0.328125 C 200.078125 0.328125 257.667969 57.933594 257.667969 129.003906 " clip-rule="nonzero"/></clipPath><clipPath id="1c79bd5e5a"><rect x="0" width="258" y="0" height="258"/></clipPath></defs><rect x="-30" width="360" fill="#ffffff" y="-29.999999" height="359.999986" fill-opacity="1"/><rect x="-30" width="360" fill="#003c22" y="-29.999999" height="359.999986" fill-opacity="1"/><g clip-path="url(#4b510e012d)"><g clip-path="url(#cf07e3f80f)"><g transform="matrix(1, 0, 0, 1, 66, 91)"><g clip-path="url(#32ecc12e50)"><g clip-path="url(#7d7801c546)"><g clip-path="url(#f70fc22399)"><rect x="-132" width="432" fill="#8cc63f" height="431.999983" y="-156.999997" fill-opacity="1"/></g></g></g></g></g></g><g clip-path="url(#ffbccfe248)"><g clip-path="url(#94ce4956f4)"><g transform="matrix(1, 0, 0, 1, 160, 129)"><g clip-path="url(#4156da376a)"><g clip-path="url(#92c21f565e)"><g clip-path="url(#1a9b910baa)"><rect x="-226" width="432" fill="#8cc63f" height="431.999983" y="-194.999997" fill-opacity="1"/></g></g></g></g></g></g><g clip-path="url(#2ab4ca0638)"><g clip-path="url(#0d49d4f883)"><g transform="matrix(1, 0, 0, 1, 107, 124)"><g clip-path="url(#fc5c4830a7)"><g clip-path="url(#4c4d9a1425)"><g clip-path="url(#9b000182fa)"><rect x="-173" width="432" fill="#ffffff" height="431.999983" y="-189.999997" fill-opacity="1"/></g></g></g></g></g></g><g clip-path="url(#dea37daedb)"><g clip-path="url(#006f4e393a)"><g transform="matrix(1, 0, 0, 1, 21, 21)"><g clip-path="url(#1c79bd5e5a)"><g clip-path="url(#816545f5a8)"><g clip-path="url(#9ff2e64489)"><rect x="-87" width="432" fill="#c1dc87" height="431.999983" y="-86.999997" fill-opacity="1"/></g></g></g></g></g></g></svg>